/* XPM */
static char *result[] = {
/* columns rows colors chars-per-pixel */
"64 64 146 2 ",
"   c #1F2B32",
".  c #222E35",
"X  c #2E2F3F",
"o  c #243037",
"O  c #25323A",
"+  c #2A333C",
"@  c #2D393F",
"#  c #283740",
"$  c #273843",
"%  c #2C3A43",
"&  c #2D3F4B",
"*  c #323042",
"=  c #323D44",
"-  c #3D304B",
";  c #41304E",
":  c #493155",
">  c #4E325A",
",  c #54375E",
"<  c #64316B",
"1  c #68316E",
"2  c #733277",
"3  c #743278",
"4  c #2E414E",
"5  c #354047",
"6  c #35424A",
"7  c #3B454B",
"8  c #3E484E",
"9  c #2F4350",
"0  c #314552",
"q  c #324857",
"w  c #3B4952",
"e  c #354C5D",
"r  c #374F61",
"t  c #375061",
"y  c #385264",
"u  c #3E5A6F",
"i  c #3F5C72",
"p  c #444C4F",
"a  c #4E514E",
"s  c #424D52",
"d  c #455057",
"f  c #495359",
"g  c #455B6B",
"h  c #535C62",
"j  c #415C73",
"k  c #586166",
"l  c #57626A",
"z  c #5B6469",
"x  c #44647C",
"c  c #48677E",
"v  c #556978",
"b  c #616A6E",
"n  c #666E73",
"m  c #6B7277",
"M  c #6D767C",
"N  c #747B7F",
"B  c #466781",
"V  c #476983",
"C  c #486B85",
"Z  c #4B6F8B",
"A  c #4C718D",
"S  c #4E7593",
"D  c #4F799B",
"F  c #507796",
"G  c #507897",
"H  c #527B9C",
"J  c #5A7F9C",
"K  c #757D83",
"L  c #557FA1",
"P  c #823284",
"I  c #873288",
"U  c #8C338C",
"Y  c #5E819C",
"T  c #7B8185",
"R  c #7E8589",
"E  c #5682A4",
"W  c #5983A6",
"Q  c #5986AA",
"!  c #5B89AD",
"~  c #5D8CB2",
"^  c #5F90B7",
"/  c #5F90B8",
"(  c #6386A2",
")  c #6689A6",
"_  c #6B8EAA",
"`  c #6493B7",
"'  c #6894B5",
"]  c #6091B8",
"[  c #7799B0",
"{  c #848B8E",
"}  c #8E9397",
"|  c #96969E",
" . c #969B9D",
".. c #9E9F98",
"X. c #A3A197",
"o. c #B2A896",
"O. c #BFAF95",
"+. c #BFB199",
"@. c #999EA1",
"#. c #819DB4",
"$. c #8EA0A9",
"%. c #9CA2A5",
"&. c #86A3BA",
"*. c #8DA5B9",
"=. c #A0A5A7",
"-. c #A2A7A9",
";. c #A4A8AB",
":. c #B0B2AA",
">. c #ABAFB1",
",. c #ADB1B3",
"<. c #B1B4B6",
"1. c #BABBB2",
"2. c #B3B6B8",
"3. c #B5B9BB",
"4. c #BABDBE",
"5. c #C1B095",
"6. c #D1B793",
"7. c #D3B893",
"8. c #C7BCA9",
"9. c #D1C2AA",
"0. c #D0C5B0",
"q. c #E0C8A5",
"w. c #EBCDA5",
"e. c #F8D8AE",
"r. c #96AEC3",
"t. c #97B0C4",
"y. c #BCBEC0",
"u. c #BFC2C3",
"i. c #C2C4C6",
"p. c #C4C6C8",
"a. c #C4C8CB",
"s. c #C9CBCD",
"d. c #CDCFD0",
"f. c #CED0D2",
"g. c #D3D5D5",
"h. c #D3D7D9",
"j. c #D7D8D9",
"k. c #DADBDB",
"l. c #DEE0E1",
"z. c #E4E4E5",
"x. c #ECECEC",
"c. c #F0EFEF",
"v. c #EAEFF3",
"b. c #EDF1F5",
"n. c #F1F1F1",
"m. c #FEFEFE",
/* pixels */
"x.x.x.x.x.x.x.x.x.x.x.x.x.x.x.x.x.x.x.x.x.x.x.x.x.x.x.x.x.x.x.x.x.x.x.x.x.x.x.x.x.x.x.x.x.x.x.x.x.x.x.x.x.x.x.x.x.x.x.x.x.x.x.x.",
"x.x.x.x.x.x.x.x.x.x.x.x.x.x.x.x.x.x.x.x.x.x.x.x.x.x.x.x.x.x.x.x.x.x.x.x.x.x.x.x.x.x.x.x.x.x.x.x.x.x.x.x.x.x.x.x.x.x.x.x.x.x.x.x.",
"x.x.x.x.x.x.x.x.x.x.x.x.x.x.x.z.x.x.x.x.x.x.x.x.x.x.x.x.x.x.x.x.x.x.x.x.x.x.x.x.x.x.x.x.x.x.x.x.x.x.x.x.x.x.x.x.x.x.x.x.x.x.x.x.",
"x.x.x.x.x.x.x.x.x.x.x.x.x.x.x.x.x.x.x.x.x.x.x.x.z.x.x.x.x.x.x.x.x.x.x.x.x.x.x.x.x.x.x.x.x.x.x.x.x.x.x.x.x.x.x.x.x.x.x.x.x.x.x.x.",
"x.x.x.x.x.x.x.x.x.x.x.x.x.x.x.x.x.x.x.x.x.x.x.x.x.x.x.x.x.x.x.x.x.x.x.x.x.x.x.x.x.x.x.x.x.x.x.x.x.x.x.x.x.x.x.x.x.x.x.x.x.x.x.x.",
"x.x.x.x.x.x.x.x.x.x.x.x.x.x.x.x.x.x.x.x.x.x.x.x.x.x.x.x.x.x.x.x.x.x.x.x.z.x.x.x.x.x.x.x.x.x.x.x.x.x.x.z.x.x.x.x.x.x.x.x.x.x.x.x.",
"x.x.x.x.x.x.x.x.x.x.x.x.x.x.x.x.x.x.x.x.x.x.x.x.x.x.x.x.x.x.x.x.x.x.x.x.x.x.x.x.x.x.x.x.x.x.x.x.x.x.x.x.x.x.x.x.x.x.x.x.x.z.x.x.",
"x.x.x.x.x.x.x.x.x.x.x.x.x.x.x.x.x.x.x.x.x.x.x.x.x.x.x.x.x.x.x.x.x.x.x.x.x.x.x.x.x.x.x.x.x.x.x.x.x.x.x.x.x.x.x.x.x.x.x.x.x.x.x.x.",
"x.x.x.x.x.x.x.x.x.x.x.x.x.x.x.x.x.x.x.x.x.x.x.x.c.x.x.x.x.x.x.x.x.x.x.x.x.x.x.x.x.x.x.x.x.x.x.x.x.x.x.x.x.x.x.x.x.x.x.x.x.x.x.x.",
"x.x.x.x.x.x.x.x.x.x.x.x.x.k.k.k.k.k.k.k.k.k.k.k.k.k.k.k.k.k.k.k.k.k.k.k.k.k.k.k.k.k.k.k.k.k.k.k.z.x.x.x.x.x.x.x.x.x.x.x.x.x.x.x.",
"x.x.x.x.x.x.x.x.x.x.x.x.z.m s s p s s s s s s p s s s s s s s s s p s s p s s s s p d s p s d 8 } x.x.x.x.x.x.x.x.x.x.x.x.x.x.x.",
"x.x.x.x.x.x.x.x.x.x.x.x.z.h   . . . . . . . . .   . . . . . . .   . . . .   . .   . . . . .     R x.x.x.x.z.x.x.x.x.x.x.x.x.x.x.",
"x.x.x.x.x.x.x.x.x.z.p.i.y.f . . $ & & & & & & 4 4 & O . o & 9 9 9 9 0 0 0 6 0 0 0 4 0 0 6 9 0 4 K i.i.f.x.x.x.x.x.x.x.x.x.x.x.x.",
"x.x.x.x.x.x.x.x.x.g.p @ % O . . i G D D D F D S D A % o o Z ~ ~ ! ~ ! ~ ~ ~ ! ~ ! ~ ~ ! ~ ~ ! ^ B @ % z x.x.x.x.x.x.x.x.x.x.x.x.",
"x.x.x.x.x.x.x.x.n.g.6 o o o o . i L H D G H G L L S $     S ] ] ] ] ] ] / / / ] ] ] ] ] / / ] ] x . . h x.x.x.x.z.x.x.x.x.x.x.x.",
"x.x.x.x.x.x.k.;.;. ., : : X . o i H D _ r.r.#.x j x M N K ( ~ ! ~ ] ] ] / / ] ] ] ] ] ] / / ] ] F y y v %.=.,.z.x.x.x.x.x.x.x.x.",
"x.x.x.x.x.x.<.+ o X P U I - o . u H D r.m.m.f.@ . 6 z.m.m.&.D G ! / / / ] ] ] ] ] ] ] ] ] ] ] ] ] ^ ] F O . w g.x.x.x.x.x.x.x.x.",
"x.x.x.x.x.x.2.+ . * P U I - . o i Y D r.m.m.f.@ . 6 k.m.m.&.D H Q / ^ / ] ] ] ] ~ ] ^ ] ] ] ] ^ ] ] ] F O . w g.x.x.x.x.x.x.x.x.",
"x.x.x.x.x.x.2.+ o * P U I - o . i E D t.m.m.f.@ . 6 l.m.m.&.D H Q ^ ] Y u u x ~ ] ] ] ] ] ] ] ] G u j t o . 8 g.x.x.x.x.x.x.x.x.",
"x.x.x.x.x.c.2.O o X P U I - . o i D D t.m.m.f.% . 7 l.m.m.#.H H ! ^ ^ A o o & ! ] ] ] ] ] ^ ] ] c   . o . . 8 g.x.x.x.x.x.x.x.x.",
"x.x.x.x.x.c.2.+ . * P U I - . o i H D r.m.m.f.% . 6 l.m.m.&.H H Q ^ ] A O O 4 ! ] ] ] ] ] ^ ] ] c o O O o o 8 g.x.x.x.x.x.x.x.x.",
"x.x.x.x.x.c.1.+ . o - ; ; O o . i H D r.m.m.g.@ . 7 l.m.m.&.H H Q ^ ] ! S F H ^ ] ] ] ] ] ] ] ] Q S S x o . 8 g.x.x.x.x.x.x.x.x.",
"x.x.x.x.x.c.<.O . . o . . . . o i E D t.m.m.d.@   6 l.m.m.#.G H ! ] ^ ] ] ] ] ] ~ ] ] ] ] ] ^ ^ ^ ] ] H O . 8 g.x.x.x.x.x.x.x.x.",
"x.x.x.x.x.x.4.8 7 5 o . . + X X j S S *.b.b.a.= # w h.b.v.#.G H Q ] ] / ] ] ] ] ] ] ] ] ] ] ] ] / / ] G O . 8 g.x.x.x.x.x.x.x.x.",
"x.x.x.x.x.x.l.f.f.3.6 o o 1 P P > $ % g _ _ ) S A F ) _ _ W H H Q ^ ] ] ] ] ] ^ ] ] ] ] ] ] ] ] ] ] ] F o . 8 h.x.x.x.x.x.x.x.x.",
"x.x.x.x.x.x.x.x.c.g.6 o o 2 U U > .   e H H H H H H H G H H H H Q ] ] ^ ] ] ] ] ] ] ] ^ ] ] ] ] ] ] ] F O . 8 g.x.x.x.x.x.x.x.x.",
"x.x.x.x.x.x.x.x.x.g.6 . X 2 U U >   o t H H H H H H H H L H H H Q ] ] ] ^ ] ] ] ] ] ] ] ] ^ ] ] ] ] ] G O o 7 g.x.x.x.x.x.x.x.x.",
"x.x.x.x.x.x.x.x.x.g.5 . + 3 U U > o . r L H H H H H H H H H H H Q ] ] ] ] ] ] ] ] ] ] ] ] ] ] ] ] ] ] F o . 8 h.x.x.x.x.x.x.x.x.",
"x.x.x.x.x.x.x.x.x.g.7 . o 2 U U > o . e H H H L H L H H J H H H ! ] ] ] ] ^ ] ] ] ] ] ] ] ] ] / ] ] ] H o o 7 h.x.x.x.x.x.x.x.x.",
"x.x.x.x.x.x.x.x.x.d.5 . o , < < - . o e H H H H H H H H H H H H E ! ! ! ^ ] ! C C V C C C C C V C C C u o . 7 g.x.x.x.x.x.x.x.x.",
"x.x.x.x.x.x.x.x.x.f.7 . o . . o o o . t L H H H H H H H L H H H H H H E / / E @ o . o o o o o . o o o o o o 8 h.x.x.x.x.x.x.x.x.",
"x.x.x.x.x.x.x.x.x.g.5 o . . . . . o . e H H L H H H E H H H H H H H D Q ^ / E + . . o o o o . o   . o o o   7 g.x.x.x.x.x.x.x.x.",
"x.x.x.x.x.x.x.x.x.z.=. . . . . .h . . & r r g H H H H D H ! ! ! ! ! ! ! ^ ] ! C c x 4 . o m @.@. . . . . . .%.l.x.x.x.x.x.x.x.x.",
"x.x.x.x.x.x.x.x.x.x.c.x.n.c.c.n.K . . . . . & G H H H D H ! ] ] ^ ^ / / ^ ^ / ] / ~ 4 . o ;.n.c.c.c.c.c.c.x.c.x.x.x.x.x.x.x.x.x.",
"x.x.x.x.x.x.x.x.x.x.x.x.x.x.x.x.T O + O . . & G Y D J J Y ! ] ] ] ` ] ' ` ` ` ` / ~ 9 . o ;.n.x.x.x.x.x.x.x.x.x.x.x.x.x.x.x.x.x.",
"x.x.x.x.x.x.x.x.x.x.x.x.x.x.x.x.d.3.y.R O . & D D Y X.o.o.8.0.0.0.0.0.0.0.0.0.0.0.9.p . o %.c.x.x.x.x.x.x.x.x.x.x.x.x.x.x.x.x.x.",
"x.x.x.x.x.x.x.x.x.x.x.z.x.x.x.x.x.c.n.%.o . 6 D D Y 5.7.7.e.e.e.e.e.e.e.e.e.e.e.e.w.a o O ;.c.x.x.x.x.x.x.x.x.x.x.x.x.x.x.x.x.x.",
"x.x.x.x.x.x.x.x.x.x.x.x.x.k.h.h.j.j.j.| . . & D L W O.7.7.w.e.e.e.e.e.e.e.e.e.e.e.w.a o o %.c.x.x.x.x.x.x.x.x.x.x.x.x.x.x.x.x.x.",
"x.x.x.x.x.x.x.x.x.x.x.x.z.n 7 7 8 7 8 = . . 4 G H Y O.7.7.w.e.e.e.e.e.e.e.e.e.e.e.w.a . o %.c.x.x.x.x.x.x.x.x.x.x.x.x.x.x.x.x.x.",
"x.x.x.x.x.x.x.x.x.x.x.x.z.h   .   .   . . . & G H Y O.7.7.w.e.e.e.e.e.e.e.e.e.e.e.w.a . O ;.c.x.x.x.x.x.x.x.x.x.x.x.x.x.x.x.x.x.",
"x.x.x.x.x.x.x.x.x.x.x.x.z.h . . 4 q q q q q y G H Y O.7.7.w.e.e.e.e.e.e.e.e.e.e.e.w.a   o -.c.x.x.x.x.z.x.x.x.x.x.x.x.x.x.x.x.x.",
"x.x.x.x.x.x.x.x.x.x.x.x.z.h . . x ^ ~ ^ ~ ~ ! H H Y O.7.7.w.e.e.e.e.e.e.e.e.e.e.e.w.a   o -.c.x.x.x.x.x.x.x.x.x.x.x.x.x.x.z.x.x.",
"x.x.x.z.x.x.x.x.x.x.x.x.z.h   . V ] ] ] ^ / ~ E D Y 5.7.7.w.e.e.e.e.e.e.e.e.e.e.e.w.a . o ;.c.x.x.x.x.x.x.x.x.x.x.x.x.x.x.x.x.x.",
"x.x.x.x.x.x.x.x.x.x.x.x.z.h . . t V C S ! ! Q H D Y  .....:.1.1.9.q.w.w.w.w.q.1.1.:.8 . O %.c.x.x.x.x.x.x.x.x.x.x.x.x.x.x.x.x.x.",
"x.x.x.x.x.x.x.x.x.x.x.x.z.h . . . . . r H H H H H H H H H ! ^ ^ %.7.6.6.6.6.+.' / ^ 4 o o -.c.x.x.x.x.x.x.x.x.x.x.x.x.x.x.x.x.x.",
"x.x.x.x.x.x.x.x.x.x.x.x.z.h   . o o . t H H H H H H H H Y ! ] ] %.7.6.6.6.6.+.' / ! 4 o o -.c.x.x.x.x.x.x.x.x.x.x.x.x.x.x.x.x.x.",
"x.x.x.x.x.x.x.x.x.x.x.x.x.>.%.%.h o . % r r u G H H Q ~ ! ~ ] ] [ $.$.$.$.$.$.^ / ! 9 o o -.x.x.x.x.x.x.x.x.x.x.x.x.x.x.x.x.x.x.",
"x.x.x.x.x.x.x.x.x.x.x.x.x.x.x.n.K   o . . . 4 G D E ~ / / / ] ] / ^ / / / / / / / ~ 9 o o -.c.x.x.x.x.x.x.x.x.x.x.x.x.x.x.x.x.x.",
"x.x.x.x.x.x.x.x.x.x.x.x.x.x.x.x.T + @ + o o 4 G H Y ~ / ^ ~ ! ! ~ ^ ~ ^ / / / / / ~ 9 . O ;.x.x.x.x.x.x.x.x.x.x.x.x.x.x.x.x.x.x.",
"x.x.x.x.x.x.x.x.x.x.x.x.x.x.x.x.f.u.u.R o o 4 G H H ~ / ] j q q 0 0 0 u Y E E ~ / ~ 9 o O %.c.x.x.x.x.x.x.x.x.x.x.x.x.x.x.x.x.x.",
"x.x.x.x.x.x.x.x.x.x.x.x.x.x.x.x.x.x.n.%.o o 4 G H H / / ] q   . . . . 0 D D E ~ / ~ 9 . o %.c.x.x.x.x.x.x.z.x.x.x.x.x.x.x.x.x.x.",
"x.x.x.x.x.x.x.x.x.x.x.x.x.x.x.x.x.x.n.%.. . 4 S H D Q Q W g 7 8 5 . . q D E E E E Y f 8 8 ,.c.x.x.x.x.x.x.x.x.x.x.x.x.x.x.x.x.x.",
"x.x.x.x.x.x.x.x.x.x.x.x.x.x.x.x.x.x.n.%.o o 4 G H G 0 % % ;.k.j.T . . q G E C 4 4 9 3.j.h.l.x.x.x.x.x.x.x.x.x.x.x.x.x.x.x.x.x.x.",
"x.x.x.x.x.x.x.x.x.x.x.x.x.x.x.x.x.x.x.%.. o 4 G H S $   o ,.c.c.R . . q E E Z o   O p.c.x.x.x.x.x.x.x.x.x.x.x.x.x.x.x.x.x.x.x.x.",
"x.x.x.z.x.x.x.x.x.x.x.x.x.x.x.x.x.x.x.%.o . 4 x C V l k z u.x.c.{   o 4 c V c l k b f.x.x.x.x.x.x.x.x.x.x.x.x.x.x.x.x.x.x.x.x.x.",
"x.x.x.x.x.x.x.x.x.x.x.x.x.z.x.x.x.x.x.@.. o o o o 6 s.x.z.x.x.b.{ . o o O . d k.z.z.x.x.x.x.x.x.x.x.x.x.x.x.x.x.x.x.x.x.x.x.x.x.",
"x.x.x.x.x.x.x.x.x.x.x.x.x.x.x.x.x.x.x.@..   o     5 d.x.x.x.x.x.R   .       w l.x.x.x.x.x.x.x.x.x.x.x.x.x.x.x.x.x.x.x.x.x.x.x.x.",
"x.x.x.x.x.x.x.x.x.x.x.x.x.x.x.x.x.x.x.u.T T T T T { k.x.x.x.x.x.2.T T R T T } z.x.x.x.x.x.x.x.x.x.x.x.x.z.x.x.x.x.x.x.x.x.x.x.x.",
"x.x.x.x.x.x.x.x.x.x.x.x.x.x.x.x.x.x.x.x.x.x.x.x.x.x.x.x.x.x.x.x.x.x.x.x.x.x.x.x.z.x.x.x.x.x.x.x.x.x.x.x.x.x.x.x.x.x.x.x.x.x.x.x.",
"x.x.x.x.x.x.x.x.x.x.x.x.x.x.x.x.x.x.x.x.x.x.x.x.x.x.x.x.x.x.x.x.x.x.x.x.x.x.x.x.x.x.x.x.x.x.x.x.x.x.x.x.x.x.x.x.x.x.z.x.x.x.x.x.",
"x.x.x.x.x.x.x.x.x.x.x.x.x.x.x.x.x.x.x.x.x.x.x.x.x.x.x.x.x.x.x.x.x.x.x.x.x.x.x.x.x.x.x.x.x.x.x.x.x.x.x.x.x.x.x.x.x.x.x.x.x.x.x.x.",
"x.x.x.x.x.x.x.x.x.x.x.x.x.x.x.x.x.x.x.x.x.x.x.x.x.x.x.x.x.x.x.x.x.x.x.x.x.x.x.x.x.x.x.x.x.x.x.x.x.x.x.x.x.x.x.x.x.x.x.x.x.x.x.x.",
"x.x.x.x.x.x.x.x.x.z.x.x.x.x.x.x.x.x.x.x.x.x.x.x.x.x.x.x.x.x.x.x.x.x.x.x.x.x.x.x.x.x.x.x.x.x.x.x.x.x.x.x.x.x.x.x.x.x.x.x.x.x.x.x.",
"x.x.x.x.x.x.x.x.x.x.x.x.x.x.x.x.x.x.x.x.x.x.x.x.x.x.x.x.x.x.x.x.x.x.x.x.x.x.x.x.x.x.x.x.x.x.x.x.x.x.x.x.x.x.x.x.x.x.x.x.x.x.x.x."
};
